<svg width="103" height="103" viewBox="0 0 103 103" fill="none" xmlns="http://www.w3.org/2000/svg">
<g id="CheckCircle" clip-path="url(#clip0_79_2270)">
<path id="Vector" fill-rule="evenodd" clip-rule="evenodd" d="M51.7988 95.6527C63.6341 95.6527 74.9847 90.9512 83.3535 82.5823C91.7223 74.2135 96.4238 62.863 96.4238 51.0277C96.4238 39.1924 91.7223 27.8419 83.3535 19.4731C74.9847 11.1043 63.6341 6.40271 51.7988 6.40271C39.9635 6.40271 28.613 11.1043 20.2442 19.4731C11.8754 27.8419 7.17383 39.1924 7.17383 51.0277C7.17383 62.863 11.8754 74.2135 20.2442 82.5823C28.613 90.9512 39.9635 95.6527 51.7988 95.6527ZM51.7988 102.028C65.3249 102.028 78.2969 96.6545 87.8613 87.0902C97.4256 77.5258 102.799 64.5537 102.799 51.0277C102.799 37.5017 97.4256 24.5296 87.8613 14.9653C78.2969 5.40091 65.3249 0.02771 51.7988 0.02771C38.2728 0.02771 25.3007 5.40091 15.7364 14.9653C6.17203 24.5296 0.798828 37.5017 0.798828 51.0277C0.798828 64.5537 6.17203 77.5258 15.7364 87.0902C25.3007 96.6545 38.2728 102.028 51.7988 102.028Z" fill="#56B280" fill-opacity="0.6"/>
<path id="Vector_2" fill-rule="evenodd" clip-rule="evenodd" d="M70.7318 31.7114C71.624 30.827 72.8284 30.3293 74.0846 30.3258C75.3409 30.3224 76.548 30.8134 77.445 31.6929C78.3421 32.5724 78.857 33.7695 78.8784 35.0256C78.8998 36.2816 78.426 37.4957 77.5594 38.4052L52.1104 70.2164C51.6731 70.6875 51.1452 71.0656 50.5583 71.328C49.9715 71.5904 49.3378 71.7318 48.695 71.7437C48.0523 71.7556 47.4138 71.6378 46.8176 71.3973C46.2215 71.1568 45.68 70.7985 45.2254 70.3439L28.3636 53.4757C27.8938 53.0379 27.517 52.5101 27.2557 51.9236C26.9944 51.3371 26.8539 50.704 26.8425 50.062C26.8312 49.42 26.9493 48.7823 27.1898 48.187C27.4303 47.5916 27.7882 47.0508 28.2422 46.5968C28.6962 46.1428 29.237 45.7849 29.8324 45.5444C30.4277 45.3039 31.0654 45.1858 31.7074 45.1971C32.3494 45.2085 32.9825 45.349 33.569 45.6103C34.1555 45.8716 34.6833 46.2484 35.1211 46.7182L48.4703 60.061L70.6107 31.8517C70.6502 31.8023 70.6928 31.7554 70.7382 31.7114H70.7318Z" fill="#56B280" fill-opacity="0.6"/>
</g>
<defs>
<clipPath id="clip0_79_2270">
<rect width="102" height="102" fill="white" transform="translate(0.798828 0.02771)"/>
</clipPath>
</defs>
</svg>
