<svg width="190" height="23" viewBox="0 0 190 23" fill="none" xmlns="http://www.w3.org/2000/svg">
<path d="M26.6144 17.8323C25.1684 17.8323 23.7225 17.8323 22.2857 17.8323C21.5766 17.8323 20.8766 17.8415 20.1674 17.7494C19.9096 17.7126 19.6425 17.7402 19.3754 17.7402C19.228 17.7402 19.1083 17.8968 19.1359 18.0441C19.1728 18.2468 19.2096 18.4494 19.2649 18.6428C19.532 19.5546 19.8819 20.4203 20.3424 21.2492C20.453 21.4518 20.5543 21.6729 20.6464 21.8847C20.6924 21.9952 20.5727 22.2162 20.4529 22.2439C20.3424 22.2623 20.2227 22.2991 20.103 22.2991C19.0991 22.2991 18.0952 22.2899 17.1005 22.2899C16.9808 22.2899 16.8611 22.2715 16.7506 22.2531C16.5387 22.2162 16.3637 22.1057 16.2532 21.9215C16.1611 21.7742 16.0782 21.6176 16.0045 21.4518C15.4059 20.0611 15.0375 18.6152 14.8441 17.1139C14.7336 16.2943 14.6783 15.4746 14.6875 14.6457C14.7059 12.38 15.1204 10.1973 15.9677 8.0974C16.5479 6.66986 17.3031 5.33441 18.2794 4.14633C19.6148 2.51617 21.2358 1.28204 23.2343 0.572871C23.9343 0.324203 24.6435 0.140003 25.3803 0.0939529C25.5829 0.0847429 25.7855 0.0479076 25.9973 0.0294877C26.1447 0.0202778 26.2921 -0.00735654 26.4394 0.0018534C27.7749 0.0847429 29.055 0.324206 30.2892 0.904433C32.2969 1.85306 33.8442 3.30823 35.0691 5.12259C36.4875 7.24087 37.2795 9.59862 37.6019 12.1221C37.7216 13.0339 37.7492 13.9365 37.7492 14.8575C37.74 15.8338 37.6203 16.8008 37.4361 17.7494C37.2611 18.6796 37.0308 19.5914 36.6993 20.4756C36.5427 20.89 36.3493 21.286 36.1651 21.6821C36.073 21.8755 35.898 21.9952 35.677 22.032C35.502 22.0597 35.327 22.0781 35.152 22.0781C34.1481 22.0781 33.1443 22.0689 32.1496 22.0597C32.0114 22.0597 31.8641 22.0044 31.7259 21.9584C31.6338 21.9307 31.5417 21.7557 31.5786 21.6636C31.643 21.4979 31.7075 21.3321 31.7812 21.1755C32.0022 20.7242 32.2417 20.2822 32.4535 19.8309C32.693 19.3243 32.8864 18.7994 33.0061 18.2468C33.0429 18.0718 32.914 17.8692 32.739 17.8599C32.4719 17.8323 32.2141 17.8139 31.947 17.8139C30.151 17.8323 28.3827 17.8323 26.6144 17.8323ZM25.9789 13.7707V13.7615C27.8946 13.7615 29.801 13.7615 31.7167 13.7615C32.0391 13.7615 32.3614 13.7615 32.6838 13.7523C32.8311 13.7523 32.9785 13.7247 33.1166 13.6878C33.2732 13.651 33.3653 13.5313 33.3929 13.3747C33.4205 13.2273 33.4205 13.08 33.4298 12.9326C33.4298 12.3984 33.3285 11.8827 33.2179 11.3669C32.8864 9.82887 32.2969 8.39212 31.3575 7.11193C30.7589 6.30146 30.0589 5.59229 29.1932 5.05812C28.0235 4.33053 26.7341 4.08186 25.3803 4.28448C24.4685 4.42263 23.6396 4.80024 22.8844 5.33441C21.7515 6.12647 20.9134 7.1764 20.2503 8.3737C19.5043 9.72756 19.0899 11.2011 18.8412 12.7116C18.8136 12.8866 18.8044 13.0616 18.8044 13.2365C18.786 13.697 18.9241 13.826 19.3662 13.8076C19.8635 13.7799 20.3608 13.7523 20.8674 13.7523C22.5712 13.7707 24.2751 13.7707 25.9789 13.7707Z" fill="#667AFF"/>
<path d="M150.534 11.4682C150.534 14.5628 150.534 17.6573 150.534 20.7519C150.534 21.0742 150.525 21.3966 150.488 21.7189C150.451 22.0505 150.24 22.2347 149.899 22.2715C149.751 22.2899 149.604 22.2991 149.457 22.2991C148.72 22.2991 147.983 22.2991 147.246 22.2991C147.099 22.2991 146.952 22.2899 146.804 22.2715C146.519 22.2439 146.307 22.0413 146.27 21.7742C146.242 21.5715 146.224 21.3597 146.224 21.1571C146.215 20.5953 146.215 20.0335 146.215 19.4809C146.215 18.4217 146.196 17.3626 146.215 16.2942C146.224 15.5298 146.132 14.7654 146.095 14.001C146.095 13.9457 146.077 13.8812 146.067 13.826C146.031 13.651 145.883 13.4944 145.717 13.4668C145.57 13.4484 145.423 13.4207 145.275 13.4207C143.415 13.4115 141.564 13.4115 139.703 13.4115C139.584 13.4115 139.464 13.4207 139.353 13.43C139.059 13.4576 138.884 13.6418 138.865 13.9549C138.847 14.2496 138.847 14.5444 138.847 14.8391C138.847 16.81 138.847 18.7901 138.838 20.7611C138.838 21.111 138.847 21.4702 138.755 21.811C138.69 22.0597 138.515 22.2254 138.267 22.2623C138.119 22.2807 137.972 22.2991 137.825 22.2991C136.913 22.2991 136.001 22.2991 135.08 22.2899C134.988 22.2899 134.905 22.2807 134.813 22.2715C134.426 22.2347 134.242 22.0505 134.214 21.6452C134.196 21.415 134.196 21.1755 134.196 20.9361C134.196 14.7746 134.205 8.62236 134.205 2.46091C134.205 2.22145 134.205 1.9912 134.214 1.75174C134.223 1.60438 134.233 1.45702 134.26 1.30966C134.316 0.968895 134.5 0.775486 134.822 0.711016C134.969 0.683386 135.117 0.664969 135.264 0.655759C136.121 0.646549 136.977 0.646545 137.825 0.646545C137.88 0.646545 137.944 0.655759 137.999 0.655759C138.488 0.701808 138.663 0.886007 138.699 1.39255C138.718 1.63201 138.709 1.86226 138.718 2.10172C138.746 2.59906 138.773 3.1056 138.792 3.60294C138.81 3.92529 138.819 4.24764 138.819 4.56999C138.828 5.92385 138.828 7.27771 138.828 8.64078C138.828 8.88024 138.828 9.11049 138.838 9.34994C138.856 9.81044 138.976 9.90254 139.436 9.90254C141.205 9.88412 142.973 9.87491 144.741 9.8657C145.036 9.8657 145.331 9.85649 145.625 9.82886C145.874 9.81044 146.049 9.62625 146.077 9.35916C146.095 9.18417 146.104 9.00918 146.104 8.83419C146.104 8.39211 146.095 7.95003 146.113 7.50796C146.123 7.03825 146.16 6.56854 146.178 6.09883C146.187 5.77649 146.206 5.45414 146.206 5.13179C146.215 4.07265 146.215 3.0135 146.224 1.94515C146.224 1.67806 146.233 1.41097 146.27 1.15309C146.298 0.922844 146.454 0.784697 146.666 0.729437C146.804 0.692597 146.952 0.664966 147.099 0.664966C147.928 0.655756 148.748 0.655759 149.576 0.655759C149.724 0.655759 149.871 0.68339 150.009 0.720229C150.267 0.775489 150.424 0.941264 150.47 1.19914C150.507 1.40176 150.516 1.60438 150.525 1.81621C150.534 2.23066 150.534 2.64511 150.534 3.05034C150.534 5.86859 150.534 8.66841 150.534 11.4682Z" fill="#667AFF"/>
<path d="M152.183 11.809C152.146 10.1512 152.542 8.59471 153.233 7.11191C153.537 6.46721 153.914 5.86857 154.338 5.30676C156.079 3.03191 158.344 1.60436 161.153 1.07939C161.816 0.950456 162.498 0.876776 163.17 0.895196C163.962 0.913616 164.754 1.00572 165.528 1.18992C167.996 1.78856 170.022 3.08717 171.57 5.09493C172.933 6.86324 173.688 8.88943 173.716 11.1459C173.725 12.0024 173.716 12.8497 173.541 13.697C173.191 15.2996 172.555 16.7731 171.561 18.0902C169.617 20.6413 167.02 22.0504 163.852 22.4188C162.645 22.5662 161.439 22.4465 160.26 22.1333C158.464 21.6636 156.871 20.7979 155.498 19.5453C154.881 18.9835 154.366 18.3388 153.914 17.6573C153.058 16.3587 152.514 14.9312 152.284 13.4023C152.21 12.8773 152.22 12.3432 152.183 11.809ZM169.774 11.3761C169.765 10.5196 169.728 10.1604 169.525 9.45124C169.203 8.32762 168.659 7.31453 167.821 6.49484C166.164 4.87389 164.156 4.26604 161.89 4.67127C159.247 5.15019 157.451 6.74351 156.392 9.17494C155.765 10.6209 155.683 12.1313 156.033 13.6786C156.742 16.8652 159.67 18.9467 162.544 18.8822C164.432 18.8362 166.053 18.1731 167.416 16.9021C169.009 15.4101 169.783 13.5497 169.774 11.3761Z" fill="#667AFF"/>
<path d="M60.7372 15.3917C60.7372 17.2797 60.7372 19.1585 60.7372 21.0466C60.7372 21.3413 60.728 21.636 60.7096 21.9307C60.6912 22.1426 60.5438 22.3083 60.3227 22.3544C60.1754 22.382 60.0372 22.4188 59.8899 22.4188C59.1255 22.4281 58.361 22.4188 57.5966 22.4188C57.5413 22.4188 57.4769 22.4096 57.4216 22.4004C56.9703 22.3452 56.7861 22.1702 56.7585 21.7281C56.7401 21.4886 56.7493 21.2584 56.7401 21.0189C56.7217 20.669 56.7032 20.3098 56.6848 19.9598C56.6664 19.573 56.648 19.1954 56.648 18.8086C56.648 16.1285 56.648 13.4484 56.648 10.7683C56.648 10.6485 56.6388 10.5288 56.648 10.4183C56.7401 9.07364 56.252 7.92239 55.4323 6.9093C54.0324 5.17783 52.1812 4.38578 49.9708 4.64366C48.0459 4.87391 46.5723 5.89621 45.5868 7.58163C45.421 7.85793 45.2921 8.15265 45.1632 8.45658C44.9329 8.99996 44.804 9.57098 44.8132 10.1788C44.8316 11.238 44.8316 12.2971 44.8316 13.3563C44.8316 15.7969 44.8316 18.2467 44.8316 20.6874C44.8316 20.9821 44.8224 21.2768 44.8132 21.5715C44.804 21.6913 44.7856 21.811 44.7487 21.9215C44.6935 22.0965 44.5737 22.2254 44.3803 22.2623C44.2606 22.2807 44.1501 22.2991 44.0304 22.2991C43.1186 22.2991 42.2068 22.2899 41.295 22.2807C41.1753 22.2807 41.0648 22.2623 40.945 22.2439C40.7885 22.2162 40.6227 22.0505 40.595 21.8847C40.5766 21.7649 40.5582 21.6544 40.549 21.5347C40.5398 21.3321 40.5398 21.1202 40.5398 20.9176C40.5398 17.7402 40.5398 14.5536 40.5398 11.3761C40.5398 8.8526 41.2398 6.5409 42.7502 4.51471C44.4632 2.22144 46.7289 0.757059 49.5747 0.342611C51.4167 0.0755226 53.2219 0.296564 54.9257 1.11625C58.1032 2.63589 59.9728 5.16862 60.6819 8.58551C60.7556 8.95391 60.7556 9.34994 60.7556 9.72755C60.7464 11.6248 60.7372 13.5128 60.7372 15.3917Z" fill="#667AFF"/>
<path d="M118.944 14.9311C119.478 14.9404 120.003 14.9496 120.528 14.9772C120.777 14.9864 120.952 15.1706 120.998 15.4285C121.062 15.8613 121.127 16.3034 121.191 16.7363C121.256 17.1968 121.486 17.556 121.808 17.8783C122.352 18.4217 123.015 18.7349 123.761 18.8177C125.235 18.9743 126.487 18.5138 127.491 17.4086C128.228 16.5981 128.375 15.6311 128.136 14.5996C127.988 13.9733 127.592 13.4944 127.049 13.1444C126.828 12.9971 126.57 12.9142 126.303 12.8957C125.981 12.8773 125.658 12.8589 125.336 12.8681C124.092 12.905 122.868 12.7944 121.633 12.7208C120.022 12.6287 118.88 11.7813 118.207 10.317C117.913 9.67226 117.765 8.98152 117.756 8.26314C117.747 7.48951 117.839 6.73429 117.986 5.97908C118.134 5.25149 118.428 4.57916 118.824 3.95289C120.123 1.91749 122.011 0.784664 124.341 0.324167C125.981 0.149178 127.574 0.241281 129.057 1.07018C130.613 1.93591 131.617 3.20688 132.022 4.93835C132.087 5.19623 132.133 5.46332 132.133 5.7212C132.151 6.36589 132.142 7.0198 132.133 7.6645C132.133 7.78422 132.105 7.89474 132.087 8.01447C132.041 8.19867 131.921 8.32761 131.737 8.37366C131.626 8.4105 131.507 8.43813 131.387 8.43813C130.853 8.44734 130.328 8.44734 129.793 8.43813C129.646 8.43813 129.499 8.39208 129.361 8.34603C129.213 8.29998 129.094 8.19867 129.057 8.05131C129.001 7.79344 128.946 7.53556 128.928 7.26847C128.9 6.89086 128.9 6.50404 128.919 6.11723C128.946 5.43569 128.642 4.92914 128.154 4.50548C127.509 3.95289 126.754 3.63975 125.907 3.55686C124.94 3.45555 124.028 3.66738 123.19 4.15551C122.591 4.50549 122.131 4.99361 121.882 5.65673C121.661 6.22774 121.643 6.80797 121.845 7.3882C122.168 8.3184 122.748 9.03678 123.669 9.44201C123.973 9.57095 124.277 9.66305 124.608 9.66305C124.848 9.66305 125.078 9.67226 125.317 9.67226C125.962 9.67226 126.616 9.68147 127.261 9.67226C129.029 9.64463 130.447 10.3998 131.645 11.6248C132.041 12.03 132.326 12.5089 132.529 13.0339C132.943 14.0654 133.109 15.1338 133.008 16.239C132.989 16.4692 132.943 16.7087 132.888 16.9297C132.455 18.698 131.47 20.0795 129.996 21.1202C129.296 21.6176 128.522 21.9768 127.694 22.2254C127.215 22.3636 126.736 22.5017 126.238 22.6122C124.802 22.9254 123.374 22.907 121.956 22.5017C121.164 22.2715 120.39 21.9952 119.681 21.5531C118.585 20.8716 117.728 19.9598 117.093 18.8362C116.559 17.8967 116.421 16.9021 116.577 15.8521C116.586 15.7692 116.605 15.6772 116.623 15.5943C116.725 15.0969 116.881 14.9588 117.406 14.9404C117.903 14.9219 118.41 14.9404 118.907 14.9404C118.944 14.9496 118.944 14.9404 118.944 14.9311Z" fill="#667AFF"/>
<path d="M175.198 14.5627C175.208 12.4168 175.208 10.2617 175.235 8.11577C175.263 6.03433 175.926 4.1647 177.252 2.58059C178.772 0.775444 180.743 -0.0902901 183.128 0.158378C184.602 0.314948 185.91 0.913596 187.015 1.89906C188.323 3.06872 189.207 4.49626 189.667 6.19089C189.98 7.31451 190.073 8.45654 189.944 9.60779C189.723 11.5971 188.94 13.3562 187.466 14.7561C186.499 15.6679 185.357 16.2297 184.049 16.4876C182.815 16.7271 181.645 16.5613 180.494 16.1284C180.301 16.0547 180.117 15.9719 179.923 15.8982C179.739 15.8245 179.573 15.9442 179.564 16.1561C179.555 16.4231 179.546 16.6902 179.546 16.9481C179.546 18.2743 179.546 19.6006 179.546 20.9268C179.546 21.1939 179.546 21.461 179.527 21.7189C179.5 22.0873 179.325 22.2622 178.984 22.2899C178.956 22.2899 178.928 22.2991 178.892 22.2991C177.915 22.2991 176.948 22.2991 175.972 22.2899C175.852 22.2899 175.733 22.2715 175.622 22.2438C175.438 22.1978 175.3 22.0688 175.272 21.8846C175.235 21.6268 175.217 21.3597 175.217 21.0926C175.208 19.9413 175.208 18.7993 175.208 17.6481C175.208 16.6166 175.208 15.585 175.208 14.5535C175.208 14.5627 175.198 14.5627 175.198 14.5627ZM179.536 9.41437C179.536 9.56173 179.536 9.70909 179.536 9.85645C179.536 10.2985 179.536 10.7406 179.546 11.1827C179.546 11.3577 179.582 11.5327 179.684 11.6892C179.997 12.1405 180.411 12.4537 180.982 12.5181C181.747 12.6102 182.438 12.4629 183.073 12.0116C183.893 11.4406 184.482 10.6761 184.915 9.79199C185.385 8.85257 185.569 7.84868 185.477 6.78954C185.431 6.25536 185.256 5.75802 184.97 5.29753C184.62 4.73572 184.114 4.43179 183.441 4.39495C182.806 4.35811 182.226 4.50547 181.673 4.83703C180.872 5.32516 180.31 6.03433 179.84 6.82638C179.638 7.16715 179.518 7.51713 179.527 7.91315C179.546 8.4197 179.536 8.91704 179.536 9.41437Z" fill="#667AFF"/>
<path d="M76.0995 21.9492C75.0404 21.9492 73.9812 21.9399 72.9221 21.9492C70.592 21.9676 68.6026 21.1203 66.908 19.573C65.2226 18.0257 64.2003 16.1008 63.8043 13.8536C63.3346 11.2011 63.7766 8.69604 65.0476 6.3383C65.9962 4.58841 67.3133 3.18849 68.9987 2.13856C70.5275 1.18072 72.2037 0.664969 74.0181 0.655759C75.9614 0.646549 77.9047 0.646545 79.848 0.646545C80.1151 0.646545 80.3822 0.655755 80.64 0.692595C80.8611 0.720225 81.0177 0.867589 81.0637 1.08863C81.1098 1.34651 81.1558 1.61359 81.165 1.87147C81.1834 2.58064 81.1742 3.28059 81.1834 3.98976C81.1834 4.04502 81.1834 4.10949 81.1742 4.16475C81.1374 4.7726 80.9808 4.92917 80.3545 4.94759C80.0598 4.9568 79.7651 4.9568 79.4704 4.9568C77.7665 4.9568 76.0535 4.9568 74.3496 4.96601C73.972 4.96601 73.5852 4.98443 73.2076 5.0489C72.0932 5.26073 71.1814 5.83174 70.4446 6.67906C69.3026 7.99608 68.7132 9.53414 68.6395 11.2748C68.6211 11.7998 68.6211 12.334 68.6579 12.8681C68.7224 13.9825 69.0908 14.9956 69.6894 15.9351C69.9105 16.285 70.196 16.5798 70.5275 16.8376C71.5498 17.6113 72.6827 18.0073 73.9721 17.9981C75.8232 17.9797 77.6837 17.9981 79.5348 17.9981C79.8019 17.9981 80.069 17.9981 80.3269 18.0165C80.6401 18.0349 80.815 18.2007 80.8795 18.4862C80.8979 18.5691 80.9163 18.6612 80.9256 18.7441C81.0361 19.5638 81.0084 20.3927 80.9624 21.2124C80.9624 21.2952 80.9255 21.3873 80.9071 21.4702C80.8427 21.7189 80.6677 21.8847 80.419 21.9123C80.1519 21.9307 79.894 21.9399 79.6269 21.9399C78.4573 21.9492 77.2784 21.9492 76.0995 21.9492Z" fill="#667AFF"/>
<path d="M89.8223 18.0349C89.8223 16.9758 89.8039 15.9166 89.8316 14.8575C89.8408 14.3049 89.721 13.826 89.4355 13.3563C88.8829 12.4537 88.358 11.5327 87.8238 10.6209C86.5252 8.38291 85.2266 6.13569 83.9372 3.89767C83.5227 3.1885 83.1175 2.47012 82.7123 1.75175C82.6386 1.62281 82.5925 1.48466 82.5373 1.34651C82.4728 1.18073 82.5925 0.959692 82.7583 0.922852C82.8965 0.886012 83.0438 0.849174 83.1912 0.849174C84.545 0.839964 85.8989 0.839966 87.2528 0.839966C87.3449 0.839966 87.4277 0.849175 87.5198 0.867595C87.6672 0.886014 87.8054 0.950485 87.9067 1.07021C88.0448 1.22678 88.1645 1.39256 88.2751 1.55834C89.2053 2.99509 90.1263 4.42263 91.0565 5.85939C91.388 6.37514 91.7288 6.90011 92.0696 7.41586C92.1525 7.53559 92.2538 7.64611 92.3459 7.75663C92.4103 7.83031 92.6038 7.83031 92.6682 7.74743C92.7879 7.58165 92.9169 7.41587 93.0182 7.24088C93.6445 6.13568 94.2523 5.03049 94.8694 3.9253C95.3023 3.15166 95.7351 2.38723 96.168 1.6136C96.2233 1.51229 96.2877 1.41098 96.3522 1.30967C96.4811 1.09784 96.6838 0.968903 96.9232 0.941273C97.1258 0.913643 97.3284 0.886016 97.5403 0.886016C98.5073 0.876806 99.4836 0.886016 100.451 0.886016C100.837 0.886016 101.215 0.932064 101.583 1.05179C101.703 1.08863 101.804 1.29125 101.758 1.41098C101.722 1.5215 101.676 1.63202 101.62 1.73333C101.049 2.76485 100.487 3.79636 99.9072 4.82787C98.9125 6.59618 97.9179 8.36449 96.9232 10.142C96.3706 11.1183 95.818 12.0853 95.2746 13.0616C94.851 13.8352 94.851 13.6326 94.851 14.7286C94.851 16.4048 94.851 18.081 94.851 19.7664C94.851 20.3835 94.851 21.0005 94.8418 21.6176C94.8233 22.4465 94.676 22.6123 93.8655 22.6215C92.9537 22.6399 92.0419 22.6307 91.1301 22.6123C90.8723 22.6123 90.6052 22.557 90.3473 22.5018C90.0894 22.4465 89.9421 22.2623 89.9052 22.0136C89.8684 21.7557 89.85 21.4887 89.85 21.2216C89.8223 20.1532 89.8223 19.0941 89.8223 18.0349Z" fill="#667AFF"/>
<path d="M0.00690746 11.984C0.00690746 8.95394 0.00690746 5.91466 0.00690746 2.88459C0.00690746 2.56224 0.00691195 2.23989 0.0345418 1.91754C0.0437517 1.74256 0.089806 1.56757 0.154276 1.411C0.191115 1.30969 0.292411 1.21759 0.393721 1.17154C0.52266 1.10707 0.670028 1.07022 0.817387 1.06101C1.04764 1.03339 1.28709 1.03339 1.52655 1.03339C4.62109 1.03339 7.70642 1.0426 10.801 1.0426C11.3351 1.0426 11.8601 1.10707 12.3851 1.18075C12.689 1.2268 12.8548 1.40179 12.9008 1.6965C12.9193 1.81623 12.9377 1.92675 12.9377 2.04648C12.9469 2.69118 12.9561 3.34509 12.9469 3.98978C12.9469 4.1924 12.9008 4.39502 12.8548 4.59764C12.8087 4.78184 12.6706 4.90157 12.4864 4.93841C12.339 4.96604 12.1917 4.98445 12.0535 4.98445C10.055 5.03971 8.05641 5.14103 6.04864 5.09498C5.57893 5.08577 5.10922 5.05813 4.63951 5.03971C4.54741 5.03971 4.46451 5.0305 4.37241 5.0305C4.19742 5.0305 4.01324 5.17786 3.99482 5.34364C3.98561 5.3989 3.9764 5.46337 3.9764 5.51863C3.9764 7.04748 3.9764 8.57633 3.9764 10.1144C3.9764 10.2341 4.00402 10.3446 4.03165 10.4644C4.05928 10.5841 4.15139 10.6762 4.27112 10.6946C4.44611 10.7315 4.62109 10.7499 4.79608 10.7499C5.5605 10.7499 6.32492 10.7407 7.08935 10.7407C8.56294 10.7499 10.0365 10.7591 11.5009 10.7683C11.7956 10.7683 12.0904 10.8051 12.3759 10.8512C12.5969 10.888 12.7443 11.0262 12.7903 11.2564C12.9469 12.0116 12.9469 12.7761 12.9008 13.5405C12.8916 13.6234 12.8732 13.7155 12.8456 13.7984C12.7903 13.9826 12.6798 14.1207 12.4956 14.1668C12.3022 14.222 12.0904 14.2589 11.8877 14.2773C11.6206 14.2957 11.3628 14.2957 11.0957 14.2957C9.18 14.2957 7.26435 14.2957 5.35789 14.3049C5.06318 14.3049 4.76845 14.3233 4.47373 14.351C4.31716 14.3602 4.14218 14.5444 4.13297 14.7102C4.10534 14.9772 4.09611 15.2351 4.09611 15.5022C4.09611 17.1784 4.09611 18.8546 4.09611 20.54C4.09611 21.1571 4.06849 21.7742 3.93955 22.382C3.8935 22.6031 3.73694 22.732 3.51591 22.7873C3.46065 22.8057 3.39616 22.8057 3.3409 22.8149C3.31327 22.8149 3.28564 22.8241 3.2488 22.8241C2.42912 22.8241 1.60022 22.8333 0.780534 22.8241C0.660805 22.8241 0.541093 22.8057 0.430574 22.7689C0.246375 22.7136 0.126641 22.5847 0.0805915 22.4097C0.0437517 22.2715 0.0253363 22.1242 0.0161264 21.9768C0.00691645 21.6268 0.00690746 21.2676 0.00690746 20.9177C-0.00230249 17.9336 -0.00230249 14.9588 0.00690746 11.984Z" fill="#667AFF"/>
</svg>
