<svg width="32" height="32" viewBox="0 0 32 32" fill="none" xmlns="http://www.w3.org/2000/svg">
<g id="Icon / trash">
<path id="trash" d="M11.3898 26.0212H20.6208C22.1677 26.0212 23.1621 25.0871 23.2425 23.5402L23.9155 9.07589H25.0204C25.5326 9.07589 25.9244 8.67411 25.9244 8.17187C25.9244 7.66964 25.5226 7.28795 25.0204 7.28795H20.5605V5.78125C20.5605 4.23437 19.5762 3.33036 17.8987 3.33036H14.0818C12.4043 3.33036 11.4199 4.23437 11.4199 5.78125V7.28795H6.98019C6.47796 7.28795 6.07617 7.67969 6.07617 8.17187C6.07617 8.68415 6.47796 9.07589 6.98019 9.07589H8.0851L8.75809 23.5402C8.83845 25.0971 9.82282 26.0212 11.3898 26.0212ZM13.2983 5.87165C13.2983 5.35937 13.6599 5.0279 14.2123 5.0279H17.7681C18.3206 5.0279 18.6822 5.35937 18.6822 5.87165V7.28795H13.2983V5.87165ZM11.5907 24.2232C11.0382 24.2232 10.6364 23.8114 10.6063 23.2187L9.93331 9.07589H22.0371L21.3842 23.2187C21.3641 23.8214 20.9724 24.2232 20.3998 24.2232H11.5907ZM13.0371 22.606C13.469 22.606 13.7402 22.3348 13.7302 21.933L13.4289 11.4263C13.4188 11.0246 13.1376 10.7634 12.7257 10.7634C12.3039 10.7634 12.0326 11.0346 12.0427 11.4364L12.344 21.9431C12.3541 22.3449 12.6353 22.606 13.0371 22.606ZM16.0003 22.606C16.4222 22.606 16.7134 22.3449 16.7134 21.9431V11.4364C16.7134 11.0346 16.4222 10.7634 16.0003 10.7634C15.5784 10.7634 15.2972 11.0346 15.2972 11.4364V21.9431C15.2972 22.3449 15.5784 22.606 16.0003 22.606ZM18.9634 22.6161C19.3652 22.6161 19.6465 22.3449 19.6565 21.9431L19.9579 11.4364C19.9679 11.0346 19.6967 10.7734 19.2748 10.7734C18.863 10.7734 18.5818 11.0346 18.5717 11.4364L18.2704 21.9431C18.2603 22.3348 18.5315 22.6161 18.9634 22.6161Z" fill="#707070"/>
</g>
</svg>
